<svg xmlns="http://www.w3.org/2000/svg" width="20" height="20" viewBox="0 0 15 15"><path d="M13.809 2.125a4.032 4.032 0 00-3-1.305 3.78 3.78 0 00-2.356.813 4.83 4.83 0 00-.953.996 4.83 4.83 0 00-.953-.996A3.78 3.78 0 004.19.82c-1.16 0-2.226.465-3 1.305C.421 2.957 0 4.098 0 5.328c0 1.27.473 2.43 1.488 3.656.907 1.094 2.211 2.207 3.723 3.493.516.441 1.101.941 1.71 1.472.161.14.364.215.579.215a.869.869 0 00.578-.215c.61-.531 1.195-1.031 1.711-1.472 1.512-1.286 2.816-2.399 3.723-3.493C14.527 7.758 15 6.598 15 5.328c0-1.23-.422-2.371-1.191-3.203zm0 0" fill="#c4c4c4" id="surface1"/></svg>